<svg xmlns="http://www.w3.org/2000/svg" xmlns:xlink="http://www.w3.org/1999/xlink" width="500" zoomAndPan="magnify" viewBox="0 0 375 374.999991" height="500" preserveAspectRatio="xMidYMid meet" version="1.0"><defs><g/><clipPath id="e1a6754d6e"><path d="M 0 203.394531 L 375 203.394531 L 375 249.023438 L 0 249.023438 Z M 0 203.394531 " clip-rule="nonzero"/></clipPath><clipPath id="7688887ff1"><path d="M 5.632812 203.394531 L 369.367188 203.394531 C 378.890625 203.394531 386.617188 211.117188 386.617188 220.644531 L 386.617188 231.773438 C 386.617188 241.300781 378.890625 249.023438 369.367188 249.023438 L 5.632812 249.023438 C -3.890625 249.023438 -11.617188 241.300781 -11.617188 231.773438 L -11.617188 220.644531 C -11.617188 211.117188 -3.890625 203.394531 5.632812 203.394531 Z M 5.632812 203.394531 " clip-rule="nonzero"/></clipPath></defs><path stroke-linecap="butt" transform="matrix(1.312821, 0, 0, 1.312821, 42.204328, -139.132359)" fill="none" stroke-linejoin="miter" d="M 185.822645 245.698441 C 180.231752 249.691511 174.991963 253.1609 170.100303 256.103632 C 165.208644 259.04934 160.51634 261.569556 156.026367 263.667257 C 151.53342 265.761982 147.165441 267.484775 142.922432 268.832659 C 138.679423 270.180543 134.362028 271.254685 129.970245 272.052109 C 129.770889 274.646712 129.622116 276.919965 129.520951 278.865917 C 129.42276 280.81187 129.372178 282.433496 129.372178 283.730798 C 129.071656 286.527732 128.375398 289.521047 127.274477 292.716694 C 126.378863 295.409487 125.054782 298.530747 123.308186 302.074522 C 121.561589 305.618297 119.08898 309.287042 115.896309 313.080757 C 125.578463 313.479468 133.713377 313.303916 140.304025 312.557075 C 146.891699 311.807259 152.283236 310.884865 156.475662 309.78692 C 161.266156 308.587809 165.208644 307.141734 168.303124 305.442745 C 163.51263 309.635171 159.219038 313.205726 155.425324 316.148458 C 151.63161 319.094166 147.989644 321.516192 144.496452 323.411561 C 141.000284 325.30693 137.483287 326.705398 133.939512 327.603987 C 130.395736 328.502577 126.42647 329.002454 122.034688 329.100645 C 118.541495 329.20181 114.947137 329.252393 111.254589 329.252393 C 108.058942 329.350584 104.56575 329.401166 100.772035 329.401166 C 96.978321 329.401166 93.23519 329.502332 89.542641 329.701688 C 93.336356 328.002699 96.35645 325.357513 98.599948 321.763155 C 100.846422 318.171772 102.518632 314.627997 103.616577 311.131829 C 104.913879 307.040568 105.764861 302.598203 106.163573 297.807709 C 106.261763 296.608598 106.362929 294.963168 106.461119 292.865467 C 106.562285 291.068288 106.687254 288.696844 106.836027 285.754112 C 106.987776 282.808405 107.160353 279.038494 107.359709 274.447356 C 102.967926 274.646712 98.451175 274.747878 93.809454 274.747878 C 89.167733 274.747878 84.151104 274.747878 78.762542 274.747878 C 64.486275 274.747878 50.986603 274.92343 38.257576 275.271559 C 25.531524 275.619688 12.876884 276.494474 0.299605 277.892941 C 5.691143 273.700515 10.907128 268.981432 15.947561 263.741643 C 20.987994 258.501854 25.454162 253.583416 29.349042 248.992277 C 33.94018 243.60074 38.183189 238.212178 42.075094 232.820641 C 46.26752 226.831035 51.557892 218.996644 57.949184 209.311514 C 63.438912 201.027828 70.401493 190.345919 78.836928 177.268763 C 87.272364 164.191606 97.478199 148.168743 109.457409 129.203147 L 141.949456 107.642948 C 141.65191 109.237796 141.351388 111.335497 141.050866 113.9301 C 140.75332 116.524703 140.452799 119.37222 140.152277 122.466701 C 139.854731 125.561181 139.554209 128.828239 139.253687 132.273824 C 138.956141 135.716434 138.706202 139.087632 138.506846 142.381469 C 138.006969 150.165278 137.507091 158.553106 137.010189 167.536026 C 136.409145 175.123454 135.834881 182.832877 135.287396 190.670244 C 134.736936 198.507611 134.213254 206.243813 133.713377 213.878849 C 133.216475 221.51686 132.76718 228.85435 132.365492 235.891318 C 131.96678 242.928286 131.618651 249.441572 131.31813 255.431178 C 142.499916 255.330012 152.506396 254.633754 161.340543 253.336452 C 170.17469 252.036175 178.336383 249.492155 185.822645 245.698441 Z M 114.09913 150.915094 C 113.301706 152.114206 112.602473 153.161568 112.00143 154.060158 C 111.403362 154.958747 110.855877 155.756171 110.355999 156.455405 C 109.856121 157.252829 109.356244 157.952062 108.859341 158.553106 C 106.261763 162.644366 103.194062 167.312866 99.650286 172.552655 C 96.106511 177.792444 92.211631 183.332754 87.968622 189.173587 C 83.728588 195.011443 79.259444 200.977245 74.570116 207.06504 C 69.877812 213.155811 65.060539 219.145417 60.118296 225.033856 C 55.179029 230.925271 50.186204 236.513189 45.145771 241.806536 C 40.105338 247.096908 35.186899 251.836819 30.396405 256.029245 C 33.791407 255.931055 37.808281 255.829889 42.450002 255.731699 C 47.091723 255.630534 52.084548 255.556147 57.422527 255.505564 C 62.763482 255.454981 68.354375 255.431178 74.195208 255.431178 C 80.033064 255.431178 85.850093 255.431178 91.637367 255.431178 L 108.258298 255.431178 Z M 114.09913 150.915094 " stroke="#ffffff" stroke-width="23.000025" stroke-opacity="1" stroke-miterlimit="4"/><g fill="#000000" fill-opacity="1"><g transform="translate(42.204328, 294.098661)"><g><path d="M 243.953125 -110.671875 C 236.617188 -105.429688 229.738281 -100.878906 223.3125 -97.015625 C 216.894531 -93.148438 210.734375 -89.835938 204.828125 -87.078125 C 198.929688 -84.328125 193.195312 -82.066406 187.625 -80.296875 C 182.0625 -78.535156 176.394531 -77.128906 170.625 -76.078125 C 170.363281 -72.671875 170.164062 -69.6875 170.03125 -67.125 C 169.90625 -64.570312 169.84375 -62.445312 169.84375 -60.75 C 169.445312 -57.070312 168.53125 -53.140625 167.09375 -48.953125 C 165.914062 -45.410156 164.175781 -41.3125 161.875 -36.65625 C 159.582031 -32.007812 156.34375 -27.195312 152.15625 -22.21875 C 164.863281 -21.6875 175.539062 -21.910156 184.1875 -22.890625 C 192.84375 -23.878906 199.921875 -25.09375 205.421875 -26.53125 C 211.710938 -28.101562 216.890625 -30.003906 220.953125 -32.234375 C 214.660156 -26.734375 209.023438 -22.050781 204.046875 -18.1875 C 199.066406 -14.320312 194.28125 -11.144531 189.6875 -8.65625 C 185.101562 -6.164062 180.484375 -4.328125 175.828125 -3.140625 C 171.179688 -1.960938 165.976562 -1.304688 160.21875 -1.171875 C 155.625 -1.046875 150.90625 -0.984375 146.0625 -0.984375 C 141.863281 -0.847656 137.273438 -0.78125 132.296875 -0.78125 C 127.316406 -0.78125 122.398438 -0.648438 117.546875 -0.390625 C 122.535156 -2.617188 126.503906 -6.09375 129.453125 -10.8125 C 132.398438 -15.53125 134.59375 -20.179688 136.03125 -24.765625 C 137.738281 -30.140625 138.851562 -35.972656 139.375 -42.265625 C 139.507812 -43.835938 139.640625 -46 139.765625 -48.75 C 139.898438 -51.113281 140.0625 -54.226562 140.25 -58.09375 C 140.445312 -61.957031 140.679688 -66.90625 140.953125 -72.9375 C 135.179688 -72.664062 129.25 -72.53125 123.15625 -72.53125 C 117.0625 -72.53125 110.476562 -72.53125 103.40625 -72.53125 C 84.664062 -72.53125 66.9375 -72.300781 50.21875 -71.84375 C 33.507812 -71.382812 16.898438 -70.238281 0.390625 -68.40625 C 7.472656 -73.914062 14.320312 -80.109375 20.9375 -86.984375 C 27.550781 -93.867188 33.414062 -100.320312 38.53125 -106.34375 C 44.5625 -113.425781 50.128906 -120.503906 55.234375 -127.578125 C 60.742188 -135.441406 67.691406 -145.726562 76.078125 -158.4375 C 83.285156 -169.320312 92.425781 -183.347656 103.5 -200.515625 C 114.570312 -217.679688 127.972656 -238.710938 143.703125 -263.609375 L 186.359375 -291.921875 C 185.960938 -289.828125 185.566406 -287.070312 185.171875 -283.65625 C 184.785156 -280.25 184.394531 -276.515625 184 -272.453125 C 183.601562 -268.390625 183.207031 -264.097656 182.8125 -259.578125 C 182.425781 -255.054688 182.097656 -250.632812 181.828125 -246.3125 C 181.179688 -236.09375 180.53125 -225.082031 179.875 -213.28125 C 179.082031 -203.320312 178.328125 -193.195312 177.609375 -182.90625 C 176.890625 -172.625 176.203125 -162.46875 175.546875 -152.4375 C 174.890625 -142.414062 174.296875 -132.785156 173.765625 -123.546875 C 173.242188 -114.304688 172.789062 -105.753906 172.40625 -97.890625 C 187.082031 -98.023438 200.21875 -98.941406 211.8125 -100.640625 C 223.414062 -102.347656 234.128906 -105.691406 243.953125 -110.671875 Z M 149.796875 -235.109375 C 148.742188 -233.535156 147.820312 -232.160156 147.03125 -230.984375 C 146.25 -229.804688 145.53125 -228.753906 144.875 -227.828125 C 144.21875 -226.785156 143.5625 -225.867188 142.90625 -225.078125 C 139.5 -219.703125 135.46875 -213.570312 130.8125 -206.6875 C 126.164062 -199.8125 121.054688 -192.539062 115.484375 -184.875 C 109.921875 -177.207031 104.054688 -169.378906 97.890625 -161.390625 C 91.734375 -153.398438 85.410156 -145.535156 78.921875 -137.796875 C 72.441406 -130.066406 65.890625 -122.726562 59.265625 -115.78125 C 52.648438 -108.832031 46.195312 -102.609375 39.90625 -97.109375 C 44.363281 -97.242188 49.640625 -97.375 55.734375 -97.5 C 61.828125 -97.632812 68.378906 -97.734375 75.390625 -97.796875 C 82.398438 -97.859375 89.738281 -97.890625 97.40625 -97.890625 C 105.070312 -97.890625 112.707031 -97.890625 120.3125 -97.890625 L 142.125 -97.890625 Z M 149.796875 -235.109375 "/></g></g></g><path stroke-linecap="butt" transform="matrix(1.052752, 0, 0, 1.052752, 130.284898, 22.397494)" fill="none" stroke-linejoin="miter" d="M 113.501152 108.240295 C 108.807352 111.334863 104.592209 113.954486 100.8483 116.102874 C 97.104392 118.247551 93.534877 120.021176 90.143468 121.416329 C 89.642548 139.486532 89.21955 155.656951 88.870762 169.931298 C 88.518263 184.205644 88.221422 196.858496 87.969107 207.889854 C 87.720502 218.921212 87.520135 228.453522 87.371714 236.490495 C 87.223293 244.523757 87.097136 251.388208 86.996952 257.080136 C 86.696401 270.356354 86.599927 279.439692 86.696401 284.330149 C 86.599927 288.022111 86.199192 291.569362 85.501615 294.960771 C 84.900512 297.854972 83.954331 300.927278 82.655651 304.170267 C 81.356971 307.413256 79.561082 310.18501 77.264274 312.481818 C 83.253044 312.682185 88.870762 312.778659 94.110007 312.778659 C 99.349253 312.778659 104.365867 312.778659 109.159851 312.778659 C 122.833095 312.778659 134.113057 312.582002 142.999737 312.181266 C 151.882707 311.780531 158.969789 311.309295 164.260981 310.760139 C 169.552174 310.210983 173.296083 309.710064 175.492707 309.261092 C 177.689331 308.81212 178.9843 308.489305 179.385036 308.288937 C 174.093843 311.880714 169.700595 314.975283 166.209001 317.572643 C 162.713697 320.166292 159.593155 322.288706 156.851085 323.936174 C 154.105305 325.583642 151.407762 326.804401 148.762165 327.605872 C 146.116569 328.403633 143.047974 328.800658 139.55638 328.800658 L 116.495537 328.800658 C 110.005848 328.800658 102.970714 328.826631 95.382713 328.878578 C 87.794713 328.926815 80.559211 329.026999 73.672497 329.175419 C 66.782073 329.32755 60.618909 329.576155 55.179296 329.924943 C 49.739683 330.273732 45.869617 330.700441 43.572809 331.197649 C 46.370536 328.800658 48.915949 326.207008 51.209046 323.412991 C 53.505854 320.615264 55.476137 317.171907 57.123605 313.07921 C 58.771073 308.986514 60.04378 304.070083 60.941724 298.329918 C 61.843379 292.589753 62.292351 285.677066 62.292351 277.591856 L 62.292351 126.358734 C 59.197783 126.659285 55.453874 127.05631 51.060626 127.55723 C 46.667377 128.054439 41.676736 128.703778 36.088702 129.501539 C 41.476369 125.112001 46.344563 121.765118 50.685864 119.47202 C 55.027165 117.175212 58.74881 115.479507 61.843379 114.381195 C 65.435156 113.182699 68.629909 112.481412 71.423926 112.284755 C 74.91923 112.384939 78.785585 112.332991 83.030413 112.132624 C 87.27153 111.932256 91.364227 111.657678 95.308503 111.30889 C 99.249069 110.960101 102.87053 110.511129 106.165467 109.961973 C 109.456692 109.412817 111.901921 108.837687 113.501152 108.240295 Z M 179.385036 308.288937 L 179.385036 308.136806 C 179.48522 308.040333 179.585404 307.988385 179.685587 307.988385 Z M 179.385036 308.288937 " stroke="#ffffff" stroke-width="23.000025" stroke-opacity="1" stroke-miterlimit="4"/><g fill="#000000" fill-opacity="1"><g transform="translate(158.659848, 369.805579)"><g><path d="M 91.109375 -233.46875 C 86.171875 -230.207031 81.734375 -227.445312 77.796875 -225.1875 C 73.859375 -222.925781 70.101562 -221.0625 66.53125 -219.59375 C 66 -200.570312 65.546875 -183.546875 65.171875 -168.515625 C 64.804688 -153.484375 64.492188 -140.160156 64.234375 -128.546875 C 63.972656 -116.941406 63.765625 -106.90625 63.609375 -98.4375 C 63.453125 -89.976562 63.320312 -82.753906 63.21875 -76.765625 C 62.894531 -62.785156 62.785156 -53.222656 62.890625 -48.078125 C 62.785156 -44.191406 62.367188 -40.460938 61.640625 -36.890625 C 61.003906 -33.835938 60.003906 -30.601562 58.640625 -27.1875 C 57.273438 -23.769531 55.382812 -20.851562 52.96875 -18.4375 C 59.269531 -18.226562 65.179688 -18.125 70.703125 -18.125 C 76.222656 -18.125 81.503906 -18.125 86.546875 -18.125 C 100.941406 -18.125 112.816406 -18.332031 122.171875 -18.75 C 131.523438 -19.175781 138.984375 -19.675781 144.546875 -20.25 C 150.117188 -20.832031 154.0625 -21.359375 156.375 -21.828125 C 158.6875 -22.304688 160.050781 -22.648438 160.46875 -22.859375 C 154.90625 -19.078125 150.285156 -15.816406 146.609375 -13.078125 C 142.929688 -10.347656 139.644531 -8.113281 136.75 -6.375 C 133.863281 -4.644531 131.023438 -3.359375 128.234375 -2.515625 C 125.453125 -1.679688 122.222656 -1.265625 118.546875 -1.265625 L 94.265625 -1.265625 C 87.429688 -1.265625 80.019531 -1.238281 72.03125 -1.1875 C 64.050781 -1.132812 56.4375 -1.023438 49.1875 -0.859375 C 41.9375 -0.703125 35.445312 -0.441406 29.71875 -0.078125 C 23.988281 0.285156 19.914062 0.734375 17.5 1.265625 C 20.4375 -1.253906 23.113281 -3.984375 25.53125 -6.921875 C 27.945312 -9.867188 30.019531 -13.5 31.75 -17.8125 C 33.488281 -22.125 34.832031 -27.300781 35.78125 -33.34375 C 36.726562 -39.382812 37.203125 -46.660156 37.203125 -55.171875 L 37.203125 -214.390625 C 33.941406 -214.078125 30 -213.65625 25.375 -213.125 C 20.75 -212.601562 15.492188 -211.921875 9.609375 -211.078125 C 15.285156 -215.703125 20.410156 -219.222656 24.984375 -221.640625 C 29.554688 -224.054688 33.472656 -225.84375 36.734375 -227 C 40.515625 -228.257812 43.875 -228.992188 46.8125 -229.203125 C 50.5 -229.097656 54.570312 -229.148438 59.03125 -229.359375 C 63.5 -229.566406 67.804688 -229.851562 71.953125 -230.21875 C 76.109375 -230.59375 79.921875 -231.066406 83.390625 -231.640625 C 86.859375 -232.222656 89.429688 -232.832031 91.109375 -233.46875 Z M 160.46875 -22.859375 L 160.46875 -23.015625 C 160.582031 -23.117188 160.691406 -23.171875 160.796875 -23.171875 Z M 160.46875 -22.859375 "/></g></g></g><g clip-path="url(#e1a6754d6e)"><g clip-path="url(#7688887ff1)"><path fill="#ffffff" d="M -11.617188 203.394531 L 386.566406 203.394531 L 386.566406 249.023438 L -11.617188 249.023438 Z M -11.617188 203.394531 " fill-opacity="1" fill-rule="nonzero"/></g></g><g fill="#000000" fill-opacity="1"><g transform="translate(72.349764, 239.112243)"><g><path d="M 5.078125 -3.234375 C 5.054688 -3.128906 5.003906 -3.007812 4.921875 -2.875 C 4.859375 -2.738281 4.757812 -2.570312 4.625 -2.375 C 4.5 -2.1875 4.320312 -1.957031 4.09375 -1.6875 C 4.4375 -1.613281 4.78125 -1.566406 5.125 -1.546875 C 5.46875 -1.523438 5.789062 -1.515625 6.09375 -1.515625 C 6.675781 -1.515625 7.148438 -1.535156 7.515625 -1.578125 C 7.890625 -1.628906 8.113281 -1.664062 8.1875 -1.6875 C 7.632812 -1.425781 7.175781 -1.1875 6.8125 -0.96875 C 6.445312 -0.75 6.070312 -0.554688 5.6875 -0.390625 C 5.3125 -0.222656 4.878906 -0.0859375 4.390625 0.015625 C 3.898438 0.128906 3.253906 0.207031 2.453125 0.25 C 2.492188 0.226562 2.566406 0.132812 2.671875 -0.03125 L 2.34375 0.25 C 2.175781 0.269531 2.003906 0.28125 1.828125 0.28125 C 1.648438 0.28125 1.472656 0.28125 1.296875 0.28125 L 2.921875 -0.9375 C 2.960938 -1.21875 3.003906 -1.535156 3.046875 -1.890625 C 3.097656 -2.242188 3.140625 -2.613281 3.171875 -3 C 3.210938 -3.394531 3.25 -3.785156 3.28125 -4.171875 C 3.320312 -4.566406 3.351562 -4.953125 3.375 -5.328125 C 3.4375 -6.191406 3.488281 -7.082031 3.53125 -8 C 3.59375 -10.664062 3.640625 -13.285156 3.671875 -15.859375 C 3.703125 -18.429688 3.71875 -21.019531 3.71875 -23.625 L 5.671875 -26.78125 C 5.734375 -25.65625 5.945312 -24.566406 6.3125 -23.515625 C 6.675781 -22.472656 7.148438 -21.460938 7.734375 -20.484375 C 8.328125 -19.503906 9 -18.5625 9.75 -17.65625 C 10.5 -16.75 11.296875 -15.859375 12.140625 -14.984375 C 12.984375 -14.117188 13.84375 -13.269531 14.71875 -12.4375 C 15.601562 -11.601562 16.460938 -10.78125 17.296875 -9.96875 C 18.128906 -9.15625 18.914062 -8.34375 19.65625 -7.53125 C 20.40625 -6.726562 21.0625 -5.925781 21.625 -5.125 C 21.800781 -7.664062 21.914062 -10.144531 21.96875 -12.5625 C 22.019531 -14.988281 22.046875 -17.40625 22.046875 -19.8125 C 22.046875 -20.882812 22.015625 -21.726562 21.953125 -22.34375 C 21.898438 -22.96875 21.8125 -23.484375 21.6875 -23.890625 C 21.550781 -23.867188 21.398438 -23.859375 21.234375 -23.859375 C 21.078125 -23.859375 20.921875 -23.859375 20.765625 -23.859375 C 20.347656 -23.859375 19.945312 -23.847656 19.5625 -23.828125 C 19.1875 -23.804688 18.875 -23.738281 18.625 -23.625 C 19.0625 -23.925781 19.484375 -24.207031 19.890625 -24.46875 C 20.304688 -24.726562 20.722656 -24.945312 21.140625 -25.125 C 21.554688 -25.3125 21.976562 -25.457031 22.40625 -25.5625 C 22.832031 -25.664062 23.289062 -25.71875 23.78125 -25.71875 C 24.050781 -25.71875 24.351562 -25.707031 24.6875 -25.6875 C 25.019531 -25.675781 25.390625 -25.640625 25.796875 -25.578125 C 25.472656 -25.378906 25.171875 -25.203125 24.890625 -25.046875 C 24.609375 -24.890625 24.332031 -24.742188 24.0625 -24.609375 C 24.039062 -21.023438 23.9375 -17.5 23.75 -14.03125 C 23.570312 -10.5625 23.398438 -7.097656 23.234375 -3.640625 C 22.535156 -2.492188 22.03125 -1.550781 21.71875 -0.8125 C 21.40625 -0.0703125 21.226562 0.378906 21.1875 0.546875 L 21.1875 0.609375 C 20.644531 -0.609375 19.976562 -1.742188 19.1875 -2.796875 C 18.40625 -3.847656 17.546875 -4.851562 16.609375 -5.8125 C 15.679688 -6.78125 14.710938 -7.722656 13.703125 -8.640625 C 12.691406 -9.554688 11.695312 -10.488281 10.71875 -11.4375 C 9.75 -12.394531 8.828125 -13.394531 7.953125 -14.4375 C 7.085938 -15.476562 6.328125 -16.597656 5.671875 -17.796875 C 5.648438 -16.785156 5.628906 -15.769531 5.609375 -14.75 C 5.597656 -13.726562 5.582031 -12.726562 5.5625 -11.75 C 5.539062 -10.78125 5.507812 -9.847656 5.46875 -8.953125 C 5.4375 -8.066406 5.398438 -7.253906 5.359375 -6.515625 C 5.316406 -5.773438 5.269531 -5.125 5.21875 -4.5625 C 5.175781 -4 5.128906 -3.554688 5.078125 -3.234375 Z M 2.453125 0.25 C 2.421875 0.269531 2.382812 0.28125 2.34375 0.28125 L 2.34375 0.25 Z M 2.453125 0.25 "/></g></g></g><g fill="#000000" fill-opacity="1"><g transform="translate(102.107414, 239.112243)"><g><path d="M 7.015625 -1.828125 C 6.398438 -1.472656 5.804688 -1.175781 5.234375 -0.9375 C 4.660156 -0.707031 4.128906 -0.519531 3.640625 -0.375 C 3.148438 -0.238281 2.707031 -0.140625 2.3125 -0.078125 C 1.914062 -0.0234375 1.578125 0 1.296875 0 L -1.34375 0 L 0.578125 -1.078125 C 0.773438 -1.328125 0.96875 -1.582031 1.15625 -1.84375 C 1.34375 -2.101562 1.503906 -2.34375 1.640625 -2.5625 C 1.785156 -2.8125 1.925781 -3.0625 2.0625 -3.3125 C 2.425781 -4.050781 2.960938 -5.242188 3.671875 -6.890625 C 3.960938 -7.597656 4.3125 -8.4375 4.71875 -9.40625 C 5.125 -10.382812 5.59375 -11.519531 6.125 -12.8125 C 6.65625 -14.101562 7.238281 -15.566406 7.875 -17.203125 C 8.519531 -18.847656 9.242188 -20.691406 10.046875 -22.734375 L 13.109375 -25.546875 L 20 -2.15625 C 20.5 -2.03125 20.972656 -1.945312 21.421875 -1.90625 C 21.867188 -1.875 22.296875 -1.859375 22.703125 -1.859375 C 22.910156 -1.859375 23.101562 -1.859375 23.28125 -1.859375 C 23.457031 -1.867188 23.609375 -1.882812 23.734375 -1.90625 C 23.867188 -1.914062 24.003906 -1.929688 24.140625 -1.953125 C 23.460938 -1.617188 22.867188 -1.332031 22.359375 -1.09375 C 21.859375 -0.851562 21.410156 -0.648438 21.015625 -0.484375 C 20.617188 -0.328125 20.253906 -0.207031 19.921875 -0.125 C 19.585938 -0.0390625 19.25 0 18.90625 0 L 16.09375 0 L 17.015625 -0.578125 L 14.203125 -9.90625 C 13.859375 -9.8125 13.460938 -9.71875 13.015625 -9.625 C 12.566406 -9.539062 12.035156 -9.460938 11.421875 -9.390625 C 10.804688 -9.328125 10.09375 -9.265625 9.28125 -9.203125 C 8.46875 -9.140625 7.523438 -9.085938 6.453125 -9.046875 C 5.960938 -8.003906 5.507812 -7.078125 5.09375 -6.265625 C 4.6875 -5.453125 4.316406 -4.742188 3.984375 -4.140625 C 3.660156 -3.546875 3.375 -3.039062 3.125 -2.625 C 2.875 -2.21875 2.660156 -1.894531 2.484375 -1.65625 C 2.679688 -1.613281 2.898438 -1.582031 3.140625 -1.5625 C 3.390625 -1.550781 3.640625 -1.546875 3.890625 -1.546875 C 4.265625 -1.546875 4.632812 -1.5625 5 -1.59375 C 5.375 -1.625 5.710938 -1.65625 6.015625 -1.6875 C 6.367188 -1.738281 6.703125 -1.785156 7.015625 -1.828125 Z M 9.484375 -11.140625 C 11.066406 -11.140625 12.503906 -11.171875 13.796875 -11.234375 L 11.09375 -20.171875 C 10.375 -18.304688 9.710938 -16.640625 9.109375 -15.171875 C 8.503906 -13.710938 7.929688 -12.367188 7.390625 -11.140625 Z M 9.484375 -11.140625 "/></g></g></g><g fill="#000000" fill-opacity="1"><g transform="translate(127.836655, 239.112243)"><g><path d="M 10.625 -2.265625 C 9.988281 -1.847656 9.460938 -1.484375 9.046875 -1.171875 C 8.640625 -0.867188 8.269531 -0.617188 7.9375 -0.421875 C 7.601562 -0.234375 7.28125 -0.09375 6.96875 0 C 6.664062 0.09375 6.300781 0.140625 5.875 0.140625 C 5.3125 0.140625 4.828125 0.113281 4.421875 0.0625 C 4.023438 0.0195312 3.628906 0 3.234375 0 C 3.035156 0 2.832031 0.00390625 2.625 0.015625 C 2.425781 0.0351562 2.203125 0.078125 1.953125 0.140625 C 2.285156 -0.140625 2.582031 -0.441406 2.84375 -0.765625 C 3.113281 -1.097656 3.34375 -1.503906 3.53125 -1.984375 C 3.726562 -2.460938 3.878906 -3.039062 3.984375 -3.71875 C 4.097656 -4.394531 4.15625 -5.207031 4.15625 -6.15625 L 4.15625 -23.921875 C 3.789062 -23.890625 3.347656 -23.84375 2.828125 -23.78125 C 2.316406 -23.726562 1.734375 -23.65625 1.078125 -23.5625 C 1.703125 -24.070312 2.269531 -24.460938 2.78125 -24.734375 C 3.289062 -25.003906 3.726562 -25.203125 4.09375 -25.328125 C 4.519531 -25.472656 4.894531 -25.554688 5.21875 -25.578125 C 5.632812 -25.566406 6.09375 -25.570312 6.59375 -25.59375 C 7.09375 -25.625 7.570312 -25.65625 8.03125 -25.6875 C 8.488281 -25.726562 8.910156 -25.78125 9.296875 -25.84375 C 9.691406 -25.914062 9.984375 -25.988281 10.171875 -26.0625 C 9.617188 -25.695312 9.117188 -25.382812 8.671875 -25.125 C 8.234375 -24.875 7.816406 -24.664062 7.421875 -24.5 C 7.367188 -22.382812 7.320312 -20.488281 7.28125 -18.8125 C 7.238281 -17.132812 7.203125 -15.644531 7.171875 -14.34375 C 7.140625 -13.050781 7.113281 -11.929688 7.09375 -10.984375 C 7.082031 -10.046875 7.070312 -9.238281 7.0625 -8.5625 C 7.019531 -7.007812 7.003906 -5.941406 7.015625 -5.359375 C 7.003906 -4.929688 6.945312 -4.503906 6.84375 -4.078125 C 6.75 -3.703125 6.609375 -3.304688 6.421875 -2.890625 C 6.234375 -2.472656 5.960938 -2.097656 5.609375 -1.765625 C 5.835938 -1.734375 6.054688 -1.71875 6.265625 -1.71875 C 6.472656 -1.71875 6.675781 -1.71875 6.875 -1.71875 C 7.476562 -1.71875 8.007812 -1.742188 8.46875 -1.796875 C 8.9375 -1.847656 9.328125 -1.910156 9.640625 -1.984375 C 10.015625 -2.066406 10.34375 -2.160156 10.625 -2.265625 Z M 10.625 -2.265625 "/></g></g></g><g fill="#000000" fill-opacity="1"><g transform="translate(141.779722, 239.112243)"><g><path d="M 10.171875 -26.0625 C 9.617188 -25.695312 9.117188 -25.382812 8.671875 -25.125 C 8.234375 -24.875 7.816406 -24.664062 7.421875 -24.5 C 7.367188 -22.382812 7.320312 -20.488281 7.28125 -18.8125 C 7.238281 -17.132812 7.203125 -15.644531 7.171875 -14.34375 C 7.140625 -13.050781 7.113281 -11.929688 7.09375 -10.984375 C 7.082031 -10.046875 7.070312 -9.238281 7.0625 -8.5625 C 7.019531 -7.007812 7.003906 -5.941406 7.015625 -5.359375 C 7.003906 -4.929688 6.957031 -4.515625 6.875 -4.109375 C 6.8125 -3.773438 6.703125 -3.414062 6.546875 -3.03125 C 6.390625 -2.65625 6.175781 -2.332031 5.90625 -2.0625 C 6.613281 -2.03125 7.273438 -2.015625 7.890625 -2.015625 C 8.503906 -2.015625 9.09375 -2.015625 9.65625 -2.015625 C 11.257812 -2.015625 12.582031 -2.035156 13.625 -2.078125 C 14.675781 -2.128906 15.507812 -2.1875 16.125 -2.25 C 16.75 -2.320312 17.191406 -2.382812 17.453125 -2.4375 C 17.710938 -2.488281 17.863281 -2.523438 17.90625 -2.546875 C 17.289062 -2.128906 16.773438 -1.765625 16.359375 -1.453125 C 15.953125 -1.148438 15.585938 -0.898438 15.265625 -0.703125 C 14.941406 -0.515625 14.625 -0.375 14.3125 -0.28125 C 14 -0.1875 13.640625 -0.140625 13.234375 -0.140625 L 10.515625 -0.140625 C 9.753906 -0.140625 8.925781 -0.132812 8.03125 -0.125 C 7.144531 -0.125 6.296875 -0.113281 5.484375 -0.09375 C 4.679688 -0.0820312 3.957031 -0.0546875 3.3125 -0.015625 C 2.675781 0.0234375 2.222656 0.078125 1.953125 0.140625 C 2.285156 -0.140625 2.582031 -0.441406 2.84375 -0.765625 C 3.113281 -1.097656 3.34375 -1.503906 3.53125 -1.984375 C 3.726562 -2.460938 3.878906 -3.039062 3.984375 -3.71875 C 4.097656 -4.394531 4.15625 -5.207031 4.15625 -6.15625 L 4.15625 -23.921875 C 3.789062 -23.890625 3.347656 -23.84375 2.828125 -23.78125 C 2.316406 -23.726562 1.734375 -23.65625 1.078125 -23.5625 C 1.703125 -24.070312 2.269531 -24.460938 2.78125 -24.734375 C 3.289062 -25.003906 3.726562 -25.203125 4.09375 -25.328125 C 4.519531 -25.472656 4.894531 -25.554688 5.21875 -25.578125 C 5.632812 -25.566406 6.09375 -25.570312 6.59375 -25.59375 C 7.09375 -25.625 7.570312 -25.65625 8.03125 -25.6875 C 8.488281 -25.726562 8.910156 -25.78125 9.296875 -25.84375 C 9.691406 -25.914062 9.984375 -25.988281 10.171875 -26.0625 Z M 17.90625 -2.546875 L 17.90625 -2.5625 C 17.914062 -2.582031 17.925781 -2.59375 17.9375 -2.59375 Z M 17.90625 -2.546875 "/></g></g></g><g fill="#000000" fill-opacity="1"><g transform="translate(161.598285, 239.112243)"><g><path d="M 16.75 -7.421875 C 16.75 -6.828125 16.554688 -6.210938 16.171875 -5.578125 C 15.785156 -4.941406 15.273438 -4.328125 14.640625 -3.734375 C 14.015625 -3.140625 13.3125 -2.578125 12.53125 -2.046875 C 11.75 -1.523438 10.960938 -1.0625 10.171875 -0.65625 C 9.378906 -0.25 8.617188 0.0703125 7.890625 0.3125 C 7.171875 0.550781 6.554688 0.675781 6.046875 0.6875 C 5.566406 0.707031 5.050781 0.664062 4.5 0.5625 C 3.945312 0.457031 3.421875 0.320312 2.921875 0.15625 C 2.429688 0 1.988281 -0.164062 1.59375 -0.34375 C 1.195312 -0.519531 0.929688 -0.679688 0.796875 -0.828125 C 0.710938 -0.921875 0.644531 -1.019531 0.59375 -1.125 C 0.539062 -1.238281 0.515625 -1.363281 0.515625 -1.5 C 0.515625 -1.632812 0.550781 -1.773438 0.625 -1.921875 C 0.695312 -2.066406 0.820312 -2.21875 1 -2.375 C 1.164062 -2.5 1.375 -2.664062 1.625 -2.875 C 1.832031 -3.03125 2.097656 -3.238281 2.421875 -3.5 C 2.753906 -3.769531 3.160156 -4.09375 3.640625 -4.46875 C 3.460938 -4.289062 3.347656 -4.125 3.296875 -3.96875 C 3.253906 -3.820312 3.238281 -3.679688 3.25 -3.546875 C 3.257812 -3.410156 3.304688 -3.285156 3.390625 -3.171875 C 3.515625 -3.015625 3.722656 -2.84375 4.015625 -2.65625 C 4.304688 -2.46875 4.660156 -2.296875 5.078125 -2.140625 C 5.492188 -1.984375 5.960938 -1.847656 6.484375 -1.734375 C 7.003906 -1.628906 7.546875 -1.578125 8.109375 -1.578125 C 8.804688 -1.578125 9.492188 -1.644531 10.171875 -1.78125 C 10.847656 -1.914062 11.457031 -2.140625 12 -2.453125 C 12.550781 -2.773438 12.992188 -3.195312 13.328125 -3.71875 C 13.660156 -4.238281 13.828125 -4.890625 13.828125 -5.671875 C 13.828125 -6.378906 13.660156 -7.003906 13.328125 -7.546875 C 12.992188 -8.097656 12.554688 -8.585938 12.015625 -9.015625 C 11.472656 -9.453125 10.851562 -9.847656 10.15625 -10.203125 C 9.457031 -10.566406 8.75 -10.925781 8.03125 -11.28125 C 7.3125 -11.632812 6.601562 -11.988281 5.90625 -12.34375 C 5.207031 -12.707031 4.585938 -13.113281 4.046875 -13.5625 C 3.503906 -14.019531 3.066406 -14.53125 2.734375 -15.09375 C 2.398438 -15.664062 2.234375 -16.328125 2.234375 -17.078125 C 2.234375 -17.804688 2.410156 -18.519531 2.765625 -19.21875 C 3.128906 -19.914062 3.601562 -20.570312 4.1875 -21.1875 C 4.769531 -21.800781 5.441406 -22.375 6.203125 -22.90625 C 6.960938 -23.4375 7.738281 -23.890625 8.53125 -24.265625 C 9.332031 -24.648438 10.113281 -24.953125 10.875 -25.171875 C 11.644531 -25.390625 12.34375 -25.503906 12.96875 -25.515625 C 13.5625 -25.523438 14.132812 -25.492188 14.6875 -25.421875 C 15.238281 -25.359375 15.703125 -25.265625 16.078125 -25.140625 C 16.453125 -25.015625 16.707031 -24.851562 16.84375 -24.65625 C 16.988281 -24.457031 16.957031 -24.238281 16.75 -24 C 16.570312 -23.800781 16.351562 -23.585938 16.09375 -23.359375 C 15.863281 -23.160156 15.578125 -22.9375 15.234375 -22.6875 C 14.890625 -22.445312 14.472656 -22.1875 13.984375 -21.90625 C 14.078125 -22.039062 14.128906 -22.164062 14.140625 -22.28125 C 14.148438 -22.394531 14.144531 -22.488281 14.125 -22.5625 C 14.09375 -22.632812 14.046875 -22.703125 13.984375 -22.765625 C 13.898438 -22.835938 13.753906 -22.914062 13.546875 -23 C 13.347656 -23.082031 13.09375 -23.160156 12.78125 -23.234375 C 12.476562 -23.316406 12.132812 -23.382812 11.75 -23.4375 C 11.363281 -23.488281 10.953125 -23.515625 10.515625 -23.515625 C 9.816406 -23.515625 9.140625 -23.429688 8.484375 -23.265625 C 7.835938 -23.097656 7.265625 -22.835938 6.765625 -22.484375 C 6.265625 -22.128906 5.863281 -21.679688 5.5625 -21.140625 C 5.269531 -20.609375 5.125 -19.976562 5.125 -19.25 C 5.125 -18.445312 5.289062 -17.742188 5.625 -17.140625 C 5.957031 -16.546875 6.394531 -16.015625 6.9375 -15.546875 C 7.488281 -15.085938 8.113281 -14.671875 8.8125 -14.296875 C 9.507812 -13.921875 10.21875 -13.5625 10.9375 -13.21875 C 11.65625 -12.875 12.363281 -12.519531 13.0625 -12.15625 C 13.757812 -11.789062 14.378906 -11.382812 14.921875 -10.9375 C 15.472656 -10.5 15.914062 -9.992188 16.25 -9.421875 C 16.582031 -8.847656 16.75 -8.179688 16.75 -7.421875 Z M 16.75 -7.421875 "/></g></g></g><g fill="#000000" fill-opacity="1"><g transform="translate(182.419552, 239.112243)"><g/></g></g><g fill="#000000" fill-opacity="1"><g transform="translate(194.093341, 239.112243)"><g><path d="M 21.828125 -9.90625 C 21.171875 -9.4375 20.554688 -9.023438 19.984375 -8.671875 C 19.410156 -8.328125 18.859375 -8.03125 18.328125 -7.78125 C 17.804688 -7.539062 17.296875 -7.34375 16.796875 -7.1875 C 16.296875 -7.03125 15.785156 -6.90625 15.265625 -6.8125 C 15.242188 -6.5 15.226562 -6.226562 15.21875 -6 C 15.207031 -5.78125 15.203125 -5.59375 15.203125 -5.4375 C 15.160156 -5.101562 15.078125 -4.75 14.953125 -4.375 C 14.847656 -4.0625 14.691406 -3.695312 14.484375 -3.28125 C 14.285156 -2.863281 14 -2.429688 13.625 -1.984375 C 14.757812 -1.941406 15.710938 -1.960938 16.484375 -2.046875 C 17.253906 -2.140625 17.890625 -2.25 18.390625 -2.375 C 18.953125 -2.519531 19.414062 -2.691406 19.78125 -2.890625 C 19.21875 -2.390625 18.710938 -1.96875 18.265625 -1.625 C 17.816406 -1.28125 17.382812 -0.992188 16.96875 -0.765625 C 16.5625 -0.546875 16.148438 -0.382812 15.734375 -0.28125 C 15.316406 -0.175781 14.851562 -0.117188 14.34375 -0.109375 C 13.925781 -0.0976562 13.503906 -0.09375 13.078125 -0.09375 C 12.703125 -0.0820312 12.289062 -0.078125 11.84375 -0.078125 C 11.394531 -0.078125 10.953125 -0.0625 10.515625 -0.03125 C 10.960938 -0.226562 11.316406 -0.535156 11.578125 -0.953125 C 11.847656 -1.378906 12.046875 -1.800781 12.171875 -2.21875 C 12.328125 -2.695312 12.425781 -3.21875 12.46875 -3.78125 C 12.476562 -3.925781 12.492188 -4.117188 12.515625 -4.359375 C 12.523438 -4.578125 12.535156 -4.859375 12.546875 -5.203125 C 12.566406 -5.546875 12.585938 -5.988281 12.609375 -6.53125 C 12.097656 -6.5 11.566406 -6.484375 11.015625 -6.484375 C 10.472656 -6.484375 9.882812 -6.484375 9.25 -6.484375 C 7.570312 -6.484375 5.984375 -6.460938 4.484375 -6.421875 C 2.992188 -6.390625 1.507812 -6.289062 0.03125 -6.125 C 0.664062 -6.613281 1.28125 -7.164062 1.875 -7.78125 C 2.46875 -8.394531 2.992188 -8.972656 3.453125 -9.515625 C 3.984375 -10.148438 4.476562 -10.785156 4.9375 -11.421875 C 5.4375 -12.117188 6.0625 -13.039062 6.8125 -14.1875 C 7.457031 -15.15625 8.273438 -16.40625 9.265625 -17.9375 C 10.253906 -19.476562 11.453125 -21.363281 12.859375 -23.59375 L 16.671875 -26.125 C 16.640625 -25.9375 16.601562 -25.691406 16.5625 -25.390625 C 16.53125 -25.085938 16.5 -24.753906 16.46875 -24.390625 C 16.4375 -24.023438 16.398438 -23.640625 16.359375 -23.234375 C 16.328125 -22.828125 16.300781 -22.429688 16.28125 -22.046875 C 16.21875 -21.128906 16.15625 -20.144531 16.09375 -19.09375 C 16.03125 -18.195312 15.960938 -17.285156 15.890625 -16.359375 C 15.828125 -15.441406 15.765625 -14.535156 15.703125 -13.640625 C 15.648438 -12.742188 15.597656 -11.878906 15.546875 -11.046875 C 15.503906 -10.222656 15.460938 -9.460938 15.421875 -8.765625 C 16.742188 -8.773438 17.921875 -8.851562 18.953125 -9 C 19.992188 -9.15625 20.953125 -9.457031 21.828125 -9.90625 Z M 13.40625 -21.046875 C 13.3125 -20.898438 13.226562 -20.773438 13.15625 -20.671875 C 13.082031 -20.566406 13.019531 -20.472656 12.96875 -20.390625 C 12.90625 -20.296875 12.847656 -20.210938 12.796875 -20.140625 C 12.484375 -19.660156 12.117188 -19.113281 11.703125 -18.5 C 11.285156 -17.882812 10.828125 -17.234375 10.328125 -16.546875 C 9.835938 -15.859375 9.316406 -15.15625 8.765625 -14.4375 C 8.210938 -13.726562 7.644531 -13.023438 7.0625 -12.328125 C 6.476562 -11.640625 5.890625 -10.984375 5.296875 -10.359375 C 4.710938 -9.742188 4.140625 -9.1875 3.578125 -8.6875 C 3.972656 -8.695312 4.441406 -8.707031 4.984375 -8.71875 C 5.535156 -8.738281 6.125 -8.75 6.75 -8.75 C 7.375 -8.757812 8.03125 -8.765625 8.71875 -8.765625 C 9.40625 -8.765625 10.085938 -8.765625 10.765625 -8.765625 L 12.71875 -8.765625 Z M 13.40625 -21.046875 "/></g></g></g><g fill="#000000" fill-opacity="1"><g transform="translate(218.380094, 239.112243)"><g/></g></g><g fill="#000000" fill-opacity="1"><g transform="translate(230.053883, 239.112243)"><g><path d="M 10.171875 -26.0625 C 9.617188 -25.695312 9.117188 -25.382812 8.671875 -25.125 C 8.234375 -24.875 7.816406 -24.664062 7.421875 -24.5 C 7.367188 -22.382812 7.320312 -20.488281 7.28125 -18.8125 C 7.238281 -17.132812 7.203125 -15.644531 7.171875 -14.34375 C 7.140625 -13.050781 7.113281 -11.929688 7.09375 -10.984375 C 7.082031 -10.046875 7.070312 -9.238281 7.0625 -8.5625 C 7.019531 -7.007812 7.003906 -5.941406 7.015625 -5.359375 C 7.003906 -4.929688 6.957031 -4.515625 6.875 -4.109375 C 6.8125 -3.773438 6.703125 -3.414062 6.546875 -3.03125 C 6.390625 -2.65625 6.175781 -2.332031 5.90625 -2.0625 C 6.613281 -2.03125 7.273438 -2.015625 7.890625 -2.015625 C 8.503906 -2.015625 9.09375 -2.015625 9.65625 -2.015625 C 11.257812 -2.015625 12.582031 -2.035156 13.625 -2.078125 C 14.675781 -2.128906 15.507812 -2.1875 16.125 -2.25 C 16.75 -2.320312 17.191406 -2.382812 17.453125 -2.4375 C 17.710938 -2.488281 17.863281 -2.523438 17.90625 -2.546875 C 17.289062 -2.128906 16.773438 -1.765625 16.359375 -1.453125 C 15.953125 -1.148438 15.585938 -0.898438 15.265625 -0.703125 C 14.941406 -0.515625 14.625 -0.375 14.3125 -0.28125 C 14 -0.1875 13.640625 -0.140625 13.234375 -0.140625 L 10.515625 -0.140625 C 9.753906 -0.140625 8.925781 -0.132812 8.03125 -0.125 C 7.144531 -0.125 6.296875 -0.113281 5.484375 -0.09375 C 4.679688 -0.0820312 3.957031 -0.0546875 3.3125 -0.015625 C 2.675781 0.0234375 2.222656 0.078125 1.953125 0.140625 C 2.285156 -0.140625 2.582031 -0.441406 2.84375 -0.765625 C 3.113281 -1.097656 3.34375 -1.503906 3.53125 -1.984375 C 3.726562 -2.460938 3.878906 -3.039062 3.984375 -3.71875 C 4.097656 -4.394531 4.15625 -5.207031 4.15625 -6.15625 L 4.15625 -23.921875 C 3.789062 -23.890625 3.347656 -23.84375 2.828125 -23.78125 C 2.316406 -23.726562 1.734375 -23.65625 1.078125 -23.5625 C 1.703125 -24.070312 2.269531 -24.460938 2.78125 -24.734375 C 3.289062 -25.003906 3.726562 -25.203125 4.09375 -25.328125 C 4.519531 -25.472656 4.894531 -25.554688 5.21875 -25.578125 C 5.632812 -25.566406 6.09375 -25.570312 6.59375 -25.59375 C 7.09375 -25.625 7.570312 -25.65625 8.03125 -25.6875 C 8.488281 -25.726562 8.910156 -25.78125 9.296875 -25.84375 C 9.691406 -25.914062 9.984375 -25.988281 10.171875 -26.0625 Z M 17.90625 -2.546875 L 17.90625 -2.5625 C 17.914062 -2.582031 17.925781 -2.59375 17.9375 -2.59375 Z M 17.90625 -2.546875 "/></g></g></g><g fill="#000000" fill-opacity="1"><g transform="translate(249.872456, 239.112243)"><g><path d="M 10.625 -2.265625 C 9.988281 -1.847656 9.460938 -1.484375 9.046875 -1.171875 C 8.640625 -0.867188 8.269531 -0.617188 7.9375 -0.421875 C 7.601562 -0.234375 7.28125 -0.09375 6.96875 0 C 6.664062 0.09375 6.300781 0.140625 5.875 0.140625 C 5.3125 0.140625 4.828125 0.113281 4.421875 0.0625 C 4.023438 0.0195312 3.628906 0 3.234375 0 C 3.035156 0 2.832031 0.00390625 2.625 0.015625 C 2.425781 0.0351562 2.203125 0.078125 1.953125 0.140625 C 2.285156 -0.140625 2.582031 -0.441406 2.84375 -0.765625 C 3.113281 -1.097656 3.34375 -1.503906 3.53125 -1.984375 C 3.726562 -2.460938 3.878906 -3.039062 3.984375 -3.71875 C 4.097656 -4.394531 4.15625 -5.207031 4.15625 -6.15625 L 4.15625 -23.921875 C 3.789062 -23.890625 3.347656 -23.84375 2.828125 -23.78125 C 2.316406 -23.726562 1.734375 -23.65625 1.078125 -23.5625 C 1.703125 -24.070312 2.269531 -24.460938 2.78125 -24.734375 C 3.289062 -25.003906 3.726562 -25.203125 4.09375 -25.328125 C 4.519531 -25.472656 4.894531 -25.554688 5.21875 -25.578125 C 5.632812 -25.566406 6.09375 -25.570312 6.59375 -25.59375 C 7.09375 -25.625 7.570312 -25.65625 8.03125 -25.6875 C 8.488281 -25.726562 8.910156 -25.78125 9.296875 -25.84375 C 9.691406 -25.914062 9.984375 -25.988281 10.171875 -26.0625 C 9.617188 -25.695312 9.117188 -25.382812 8.671875 -25.125 C 8.234375 -24.875 7.816406 -24.664062 7.421875 -24.5 C 7.367188 -22.382812 7.320312 -20.488281 7.28125 -18.8125 C 7.238281 -17.132812 7.203125 -15.644531 7.171875 -14.34375 C 7.140625 -13.050781 7.113281 -11.929688 7.09375 -10.984375 C 7.082031 -10.046875 7.070312 -9.238281 7.0625 -8.5625 C 7.019531 -7.007812 7.003906 -5.941406 7.015625 -5.359375 C 7.003906 -4.929688 6.945312 -4.503906 6.84375 -4.078125 C 6.75 -3.703125 6.609375 -3.304688 6.421875 -2.890625 C 6.234375 -2.472656 5.960938 -2.097656 5.609375 -1.765625 C 5.835938 -1.734375 6.054688 -1.71875 6.265625 -1.71875 C 6.472656 -1.71875 6.675781 -1.71875 6.875 -1.71875 C 7.476562 -1.71875 8.007812 -1.742188 8.46875 -1.796875 C 8.9375 -1.847656 9.328125 -1.910156 9.640625 -1.984375 C 10.015625 -2.066406 10.34375 -2.160156 10.625 -2.265625 Z M 10.625 -2.265625 "/></g></g></g><g fill="#000000" fill-opacity="1"><g transform="translate(263.815534, 239.112243)"><g><path d="M 14.84375 -13.234375 C 14.75 -13.171875 14.597656 -13.078125 14.390625 -12.953125 C 14.203125 -12.816406 13.9375 -12.640625 13.59375 -12.421875 C 13.257812 -12.203125 12.8125 -11.890625 12.25 -11.484375 C 12.34375 -11.660156 12.335938 -11.796875 12.234375 -11.890625 C 12.140625 -11.984375 12.007812 -12.050781 11.84375 -12.09375 C 11.644531 -12.132812 11.410156 -12.148438 11.140625 -12.140625 C 10.722656 -12.109375 10.175781 -12.066406 9.5 -12.015625 C 8.820312 -11.972656 8.0625 -11.929688 7.21875 -11.890625 C 7.207031 -10.160156 7.191406 -8.742188 7.171875 -7.640625 C 7.148438 -6.546875 7.132812 -5.6875 7.125 -5.0625 C 7.101562 -4.332031 7.082031 -3.789062 7.0625 -3.4375 C 7.03125 -3.195312 6.957031 -2.96875 6.84375 -2.75 C 6.75 -2.550781 6.597656 -2.335938 6.390625 -2.109375 C 6.191406 -1.890625 5.910156 -1.691406 5.546875 -1.515625 C 6.253906 -1.515625 6.960938 -1.535156 7.671875 -1.578125 C 8.265625 -1.617188 8.898438 -1.675781 9.578125 -1.75 C 10.253906 -1.832031 10.867188 -1.957031 11.421875 -2.125 C 10.867188 -1.632812 10.304688 -1.242188 9.734375 -0.953125 C 9.171875 -0.660156 8.601562 -0.429688 8.03125 -0.265625 C 7.457031 -0.0976562 6.898438 0.015625 6.359375 0.078125 C 5.816406 0.148438 5.304688 0.195312 4.828125 0.21875 C 4.347656 0.25 3.90625 0.273438 3.5 0.296875 C 3.101562 0.316406 2.765625 0.363281 2.484375 0.4375 C 2.847656 0.0703125 3.128906 -0.28125 3.328125 -0.625 C 3.535156 -0.976562 3.691406 -1.375 3.796875 -1.8125 C 3.898438 -2.25 3.96875 -2.738281 4 -3.28125 C 4.03125 -3.820312 4.039062 -4.46875 4.03125 -5.21875 L 4.03125 -11.859375 C 3.707031 -11.859375 3.382812 -11.863281 3.0625 -11.875 C 2.75 -11.882812 2.425781 -11.898438 2.09375 -11.921875 L 4.03125 -12.9375 C 4.03125 -13.582031 4.023438 -14.269531 4.015625 -15 C 4.015625 -15.726562 4.015625 -16.519531 4.015625 -17.375 C 4.015625 -18.226562 4.007812 -19.144531 4 -20.125 C 4 -21.113281 4 -22.1875 4 -23.34375 C 3.46875 -23.34375 2.96875 -23.347656 2.5 -23.359375 C 2.03125 -23.367188 1.597656 -23.390625 1.203125 -23.421875 L 4.46875 -25.15625 C 6.695312 -25.15625 8.597656 -25.171875 10.171875 -25.203125 C 11.753906 -25.234375 13.0625 -25.265625 14.09375 -25.296875 C 15.289062 -25.347656 16.285156 -25.394531 17.078125 -25.4375 C 17.484375 -25.4375 17.75 -25.40625 17.875 -25.34375 C 18 -25.28125 18.050781 -25.207031 18.03125 -25.125 C 18.007812 -25.050781 17.9375 -24.972656 17.8125 -24.890625 C 17.695312 -24.804688 17.59375 -24.75 17.5 -24.71875 C 17.40625 -24.664062 17.234375 -24.566406 16.984375 -24.421875 C 16.753906 -24.285156 16.4375 -24.082031 16.03125 -23.8125 C 15.625 -23.539062 15.070312 -23.171875 14.375 -22.703125 C 14.601562 -22.953125 14.703125 -23.140625 14.671875 -23.265625 C 14.640625 -23.390625 14.554688 -23.484375 14.421875 -23.546875 C 14.273438 -23.597656 14.066406 -23.625 13.796875 -23.625 C 13.566406 -23.601562 13.226562 -23.582031 12.78125 -23.5625 C 12.34375 -23.550781 11.828125 -23.53125 11.234375 -23.5 C 10.640625 -23.476562 9.992188 -23.457031 9.296875 -23.4375 C 8.609375 -23.414062 7.898438 -23.394531 7.171875 -23.375 C 7.203125 -21.351562 7.21875 -19.550781 7.21875 -17.96875 C 7.21875 -16.382812 7.21875 -14.9375 7.21875 -13.625 C 8.28125 -13.632812 9.25 -13.648438 10.125 -13.671875 C 11.007812 -13.703125 11.769531 -13.738281 12.40625 -13.78125 C 13.144531 -13.820312 13.8125 -13.867188 14.40625 -13.921875 C 14.800781 -13.929688 15.0625 -13.910156 15.1875 -13.859375 C 15.320312 -13.804688 15.378906 -13.738281 15.359375 -13.65625 C 15.335938 -13.570312 15.265625 -13.488281 15.140625 -13.40625 C 15.023438 -13.320312 14.925781 -13.265625 14.84375 -13.234375 Z M 14.84375 -13.234375 "/></g></g></g><g fill="#000000" fill-opacity="1"><g transform="translate(284.179437, 239.112243)"><g><path d="M 15.46875 -13.796875 C 15.363281 -13.742188 15.203125 -13.65625 14.984375 -13.53125 C 14.796875 -13.414062 14.53125 -13.242188 14.1875 -13.015625 C 13.84375 -12.785156 13.390625 -12.46875 12.828125 -12.0625 C 12.921875 -12.238281 12.914062 -12.375 12.8125 -12.46875 C 12.71875 -12.5625 12.585938 -12.628906 12.421875 -12.671875 C 12.222656 -12.710938 11.988281 -12.726562 11.71875 -12.71875 C 11.289062 -12.6875 10.679688 -12.644531 9.890625 -12.59375 C 9.097656 -12.550781 8.207031 -12.507812 7.21875 -12.46875 C 7.21875 -10.59375 7.203125 -9.066406 7.171875 -7.890625 C 7.148438 -6.710938 7.132812 -5.796875 7.125 -5.140625 C 7.101562 -4.359375 7.082031 -3.789062 7.0625 -3.4375 C 7.03125 -3.195312 6.957031 -2.96875 6.84375 -2.75 C 6.75 -2.550781 6.597656 -2.335938 6.390625 -2.109375 C 6.191406 -1.890625 5.910156 -1.691406 5.546875 -1.515625 L 13.515625 -1.515625 C 13.890625 -1.515625 14.269531 -1.535156 14.65625 -1.578125 C 14.976562 -1.617188 15.328125 -1.675781 15.703125 -1.75 C 16.085938 -1.832031 16.445312 -1.957031 16.78125 -2.125 C 16.195312 -1.570312 15.617188 -1.148438 15.046875 -0.859375 C 14.472656 -0.566406 13.941406 -0.359375 13.453125 -0.234375 C 12.890625 -0.078125 12.359375 0.0078125 11.859375 0.03125 C 10.710938 0.03125 9.628906 0.0351562 8.609375 0.046875 C 7.585938 0.0664062 6.664062 0.09375 5.84375 0.125 C 5.019531 0.15625 4.316406 0.195312 3.734375 0.25 C 3.160156 0.300781 2.742188 0.363281 2.484375 0.4375 C 2.847656 0.0703125 3.128906 -0.28125 3.328125 -0.625 C 3.535156 -0.976562 3.691406 -1.375 3.796875 -1.8125 C 3.898438 -2.25 3.96875 -2.738281 4 -3.28125 C 4.03125 -3.820312 4.039062 -4.46875 4.03125 -5.21875 L 4.03125 -12.4375 C 3.6875 -12.4375 3.351562 -12.441406 3.03125 -12.453125 C 2.707031 -12.460938 2.394531 -12.484375 2.09375 -12.515625 L 4.03125 -13.515625 C 4.03125 -14.148438 4.023438 -14.816406 4.015625 -15.515625 C 4.015625 -16.210938 4.015625 -16.957031 4.015625 -17.75 C 4.015625 -18.550781 4.007812 -19.410156 4 -20.328125 C 4 -21.242188 4 -22.25 4 -23.34375 C 3.46875 -23.34375 2.96875 -23.347656 2.5 -23.359375 C 2.03125 -23.367188 1.597656 -23.390625 1.203125 -23.421875 L 4.46875 -25.15625 C 6.695312 -25.15625 8.597656 -25.171875 10.171875 -25.203125 C 11.753906 -25.234375 13.0625 -25.265625 14.09375 -25.296875 C 15.289062 -25.347656 16.285156 -25.394531 17.078125 -25.4375 C 17.484375 -25.4375 17.75 -25.40625 17.875 -25.34375 C 18 -25.28125 18.050781 -25.207031 18.03125 -25.125 C 18.007812 -25.050781 17.9375 -24.972656 17.8125 -24.890625 C 17.695312 -24.804688 17.59375 -24.75 17.5 -24.71875 C 17.40625 -24.664062 17.234375 -24.566406 16.984375 -24.421875 C 16.753906 -24.285156 16.4375 -24.082031 16.03125 -23.8125 C 15.625 -23.539062 15.070312 -23.171875 14.375 -22.703125 C 14.601562 -22.953125 14.703125 -23.140625 14.671875 -23.265625 C 14.640625 -23.390625 14.554688 -23.484375 14.421875 -23.546875 C 14.273438 -23.597656 14.066406 -23.625 13.796875 -23.625 C 13.566406 -23.601562 13.226562 -23.582031 12.78125 -23.5625 C 12.34375 -23.550781 11.828125 -23.53125 11.234375 -23.5 C 10.640625 -23.476562 9.992188 -23.457031 9.296875 -23.4375 C 8.609375 -23.414062 7.898438 -23.394531 7.171875 -23.375 C 7.191406 -21.5 7.203125 -19.816406 7.203125 -18.328125 C 7.210938 -16.835938 7.21875 -15.472656 7.21875 -14.234375 C 8.414062 -14.242188 9.488281 -14.265625 10.4375 -14.296875 C 11.394531 -14.328125 12.210938 -14.359375 12.890625 -14.390625 C 13.691406 -14.441406 14.40625 -14.484375 15.03125 -14.515625 C 15.414062 -14.523438 15.671875 -14.5 15.796875 -14.4375 C 15.929688 -14.382812 15.984375 -14.316406 15.953125 -14.234375 C 15.929688 -14.148438 15.863281 -14.0625 15.75 -13.96875 C 15.644531 -13.882812 15.550781 -13.828125 15.46875 -13.796875 Z M 15.46875 -13.796875 "/></g></g></g></svg>