<svg xmlns="http://www.w3.org/2000/svg" xmlns:xlink="http://www.w3.org/1999/xlink" width="500" zoomAndPan="magnify" viewBox="0 0 375 374.999991" height="500" preserveAspectRatio="xMidYMid meet" version="1.0"><defs><g/></defs><g fill="#2b1511" fill-opacity="1"><g transform="translate(-0.464016, 283.133716)"><g><path d="M 20.96875 -78.917969 C 20.96875 -78.535156 20.96875 -78.535156 20.96875 -78.535156 C 20.96875 -78.15625 20.96875 -78.15625 20.96875 -78.15625 C 20.96875 -77.773438 20.96875 -77.773438 21.347656 -77.773438 C 21.347656 -77.773438 21.730469 -77.390625 21.730469 -77.390625 C 22.113281 -77.390625 22.113281 -77.390625 22.113281 -77.390625 L 150.210938 -77.390625 L 150.210938 -19.0625 C 149.828125 -9.148438 141.820312 -1.144531 131.910156 -1.144531 C 131.148438 -1.144531 130.386719 -0.382812 130.386719 0.382812 C 130.386719 0.761719 131.148438 1.523438 131.910156 1.523438 L 183.757812 1.523438 C 184.519531 1.523438 185.285156 0.761719 185.285156 0.382812 C 185.285156 -0.382812 184.519531 -1.144531 183.757812 -1.144531 C 173.847656 -1.144531 165.460938 -9.148438 165.460938 -19.445312 L 165.460938 -77.390625 L 176.515625 -77.390625 C 177.277344 -77.390625 178.039062 -78.15625 178.039062 -78.917969 C 178.039062 -79.296875 177.277344 -80.0625 176.515625 -80.0625 L 165.460938 -80.0625 L 165.460938 -166.222656 C 165.460938 -166.601562 165.460938 -166.984375 164.695312 -167.367188 C 164.316406 -167.367188 163.933594 -167.367188 163.554688 -167.367188 L 150.589844 -156.691406 C 150.210938 -156.308594 150.210938 -155.929688 150.210938 -155.546875 L 150.210938 -80.0625 L 41.175781 -80.0625 L 185.664062 -264.582031 C 186.046875 -264.964844 186.046875 -265.726562 186.046875 -266.105469 C 185.664062 -266.488281 185.285156 -266.871094 184.902344 -266.871094 L 168.128906 -266.488281 C 167.746094 -266.488281 167.367188 -266.488281 166.984375 -266.105469 L 20.96875 -79.679688 C 20.96875 -79.296875 20.96875 -79.296875 20.96875 -79.296875 C 20.96875 -78.917969 20.96875 -78.917969 20.96875 -78.917969 Z M 20.96875 -78.917969 "/></g></g></g><g fill="#2b1511" fill-opacity="1"><g transform="translate(169.187945, 283.133716)"><g><path d="M 199.390625 -41.554688 C 198.628906 -41.554688 197.863281 -41.554688 197.484375 -40.792969 C 187.191406 -19.0625 161.265625 -1.144531 139.152344 -1.144531 L 69.386719 -1.144531 C 59.472656 -1.144531 51.46875 -9.148438 51.46875 -19.445312 L 51.46875 -245.519531 C 51.46875 -255.8125 59.472656 -263.820312 69.386719 -263.820312 C 70.148438 -263.820312 70.910156 -264.582031 70.910156 -265.34375 C 70.910156 -265.726562 70.148438 -266.488281 69.386719 -266.488281 L 17.539062 -266.488281 C 16.773438 -266.488281 16.394531 -265.726562 16.394531 -265.34375 C 16.394531 -264.582031 16.773438 -263.820312 17.539062 -263.820312 C 27.449219 -263.820312 35.835938 -255.8125 35.835938 -245.902344 L 35.835938 -19.0625 C 35.835938 -9.148438 27.449219 -1.144531 17.539062 -1.144531 C 16.773438 -1.144531 16.394531 -0.382812 16.394531 0 C 16.394531 0.761719 16.773438 1.523438 17.539062 1.523438 L 179.945312 1.523438 C 180.328125 1.523438 180.707031 1.144531 181.089844 0.761719 L 199.769531 -39.648438 C 200.152344 -40.410156 200.152344 -41.175781 199.390625 -41.554688 Z M 199.390625 -41.554688 "/></g></g></g><g fill="#2b1511" fill-opacity="1"><g transform="translate(32.304929, 367.581279)"><g><path d="M 7.421875 -24.453125 L 7.421875 0 L 4.21875 0 L 4.21875 -32.390625 L 5.15625 -32.390625 L 26.375 -7 L 26.375 -31.453125 L 29.578125 -31.453125 L 29.578125 0.9375 L 28.625 0.9375 Z M 7.421875 -24.453125 "/></g></g></g><g fill="#2b1511" fill-opacity="1"><g transform="translate(72.151281, 367.581279)"><g><path d="M 13.375 -32.390625 L 14.3125 -32.390625 L 26.28125 0 L 22.671875 0 L 19.71875 -8.265625 L 7.796875 -8.265625 L 4.828125 0 L 1.40625 0 Z M 18.640625 -11.3125 L 13.75 -24.921875 L 8.875 -11.3125 Z M 18.640625 -11.3125 "/></g></g></g><g fill="#2b1511" fill-opacity="1"><g transform="translate(105.89636, 367.581279)"><g><path d="M 4.21875 -31.453125 L 7.515625 -31.453125 L 7.515625 0 L 4.21875 0 Z M 4.21875 -31.453125 "/></g></g></g><g fill="#2b1511" fill-opacity="1"><g transform="translate(123.684251, 367.581279)"><g><path d="M 4.21875 -31.453125 L 7.515625 -31.453125 L 7.515625 -3.046875 L 20.1875 -3.046875 L 20.1875 0 L 4.21875 0 Z M 4.21875 -31.453125 "/></g></g></g><g fill="#2b1511" fill-opacity="1"><g transform="translate(152.032041, 367.581279)"><g><path d="M 11.78125 0.46875 C 9.65625 0.46875 7.691406 -0.0351562 5.890625 -1.046875 C 4.085938 -2.066406 2.59375 -3.53125 1.40625 -5.4375 L 3.9375 -7.515625 C 6.132812 -4.191406 8.765625 -2.53125 11.828125 -2.53125 C 13.671875 -2.53125 15.15625 -3.03125 16.28125 -4.03125 C 17.414062 -5.03125 17.984375 -6.363281 17.984375 -8.03125 C 17.984375 -9.46875 17.472656 -10.703125 16.453125 -11.734375 C 15.429688 -12.765625 13.796875 -13.734375 11.546875 -14.640625 C 8.703125 -15.734375 6.644531 -17.015625 5.375 -18.484375 C 4.101562 -19.960938 3.46875 -21.71875 3.46875 -23.75 C 3.46875 -24.96875 3.671875 -26.078125 4.078125 -27.078125 C 4.484375 -28.078125 5.0625 -28.9375 5.8125 -29.65625 C 6.570312 -30.382812 7.472656 -30.941406 8.515625 -31.328125 C 9.566406 -31.722656 10.734375 -31.921875 12.015625 -31.921875 C 15.609375 -31.921875 18.582031 -30.320312 20.9375 -27.125 L 18.40625 -25.0625 C 17.457031 -26.375 16.457031 -27.332031 15.40625 -27.9375 C 14.363281 -28.550781 13.21875 -28.859375 11.96875 -28.859375 C 10.375 -28.859375 9.109375 -28.421875 8.171875 -27.546875 C 7.234375 -26.671875 6.765625 -25.5 6.765625 -24.03125 C 6.765625 -22.625 7.238281 -21.425781 8.1875 -20.4375 C 9.144531 -19.457031 10.734375 -18.53125 12.953125 -17.65625 C 15.796875 -16.550781 17.890625 -15.238281 19.234375 -13.71875 C 20.585938 -12.207031 21.265625 -10.40625 21.265625 -8.3125 C 21.265625 -7.03125 21.03125 -5.847656 20.5625 -4.765625 C 20.09375 -3.679688 19.429688 -2.75 18.578125 -1.96875 C 17.734375 -1.1875 16.734375 -0.582031 15.578125 -0.15625 C 14.421875 0.257812 13.15625 0.46875 11.78125 0.46875 Z M 11.78125 0.46875 "/></g></g></g><g fill="#2b1511" fill-opacity="1"><g transform="translate(181.693944, 367.581279)"><g/></g></g><g fill="#2b1511" fill-opacity="1"><g transform="translate(198.07385, 367.581279)"><g><path d="M 15.25 -6.578125 L 0.703125 -6.578125 L 0.703125 -7.515625 L 17.40625 -32.390625 L 18.359375 -32.390625 L 18.359375 -9.484375 L 22.578125 -9.484375 L 22.578125 -6.578125 L 18.359375 -6.578125 L 18.359375 0 L 15.25 0 Z M 15.25 -9.484375 L 15.25 -24.171875 L 5.390625 -9.484375 Z M 15.25 -9.484375 "/></g></g></g><g fill="#2b1511" fill-opacity="1"><g transform="translate(228.345898, 367.581279)"><g/></g></g><g fill="#2b1511" fill-opacity="1"><g transform="translate(244.725804, 367.581279)"><g><path d="M 4.21875 -31.453125 L 7.515625 -31.453125 L 7.515625 -3.046875 L 20.1875 -3.046875 L 20.1875 0 L 4.21875 0 Z M 4.21875 -31.453125 "/></g></g></g><g fill="#2b1511" fill-opacity="1"><g transform="translate(273.073601, 367.581279)"><g><path d="M 4.21875 -31.453125 L 7.515625 -31.453125 L 7.515625 0 L 4.21875 0 Z M 4.21875 -31.453125 "/></g></g></g><g fill="#2b1511" fill-opacity="1"><g transform="translate(290.861497, 367.581279)"><g><path d="M 4.21875 -31.453125 L 20.421875 -31.453125 L 20.421875 -28.390625 L 7.515625 -28.390625 L 7.515625 -16.890625 L 17.359375 -16.890625 L 17.359375 -13.84375 L 7.515625 -13.84375 L 7.515625 0 L 4.21875 0 Z M 4.21875 -31.453125 "/></g></g></g><g fill="#2b1511" fill-opacity="1"><g transform="translate(319.209294, 367.581279)"><g><path d="M 4.21875 -31.453125 L 20.421875 -31.453125 L 20.421875 -28.390625 L 7.515625 -28.390625 L 7.515625 -17.84375 L 17.359375 -17.84375 L 17.359375 -14.78125 L 7.515625 -14.78125 L 7.515625 -3.046875 L 20.65625 -3.046875 L 20.65625 0 L 4.21875 0 Z M 4.21875 -31.453125 "/></g></g></g></svg>